<?xml version="1.0" standalone="no"?>
<!DOCTYPE svg PUBLIC "-//W3C//DTD SVG 20010904//EN"
 "http://www.w3.org/TR/2001/REC-SVG-20010904/DTD/svg10.dtd">
<svg version="1.0" xmlns="http://www.w3.org/2000/svg"
 width="500.000000pt" height="500.000000pt" viewBox="0 0 500.000000 500.000000"
 preserveAspectRatio="xMidYMid meet">
<metadata>
Created by potrace 1.14, written by Peter Selinger 2001-2017
</metadata>
<g transform="translate(0.000000,500.000000) scale(0.100000,-0.100000)"
fill="#000000" stroke="none">
<path d="M49 4992 c-30 -2 -38 -8 -42 -28 -2 -13 -1 -26 3 -29 4 -2 3 -30 -1
-62 -4 -32 -8 -1141 -9 -2465 l-1 -2408 336 0 c328 0 335 0 335 20 0 11 4 20
10 20 8 0 26 66 22 82 -1 5 3 8 8 8 6 0 10 11 10 24 0 14 4 28 10 31 5 3 10
13 10 22 0 9 15 32 33 52 55 63 82 96 83 101 6 33 66 150 76 150 4 0 8 8 8 18
0 17 47 64 118 118 33 26 35 36 36 222 1 126 -1 145 -16 153 -11 6 -17 21 -17
42 1 18 -6 48 -14 67 -8 19 -13 47 -10 63 3 15 1 27 -5 27 -5 0 -10 10 -11 23
0 12 -2 58 -3 102 -4 95 3 160 17 160 6 0 16 4 23 8 7 5 28 3 47 -3 38 -13 50
-40 58 -137 6 -67 67 -191 123 -247 26 -27 44 -55 48 -78 5 -28 25 -55 77
-108 39 -39 74 -69 76 -66 3 3 14 1 24 -4 9 -6 37 -11 60 -13 24 -2 45 -9 46
-14 2 -6 28 -24 58 -39 30 -15 57 -35 60 -46 4 -10 22 -35 42 -56 66 -69 82
-96 86 -145 2 -27 9 -53 16 -60 6 -6 11 -16 11 -23 0 -24 84 -125 109 -131 43
-10 81 -33 81 -48 0 -8 3 -15 8 -15 4 0 18 -18 32 -40 14 -22 28 -40 31 -40 8
0 62 -111 78 -162 l13 -38 1379 0 1379 0 0 2458 c0 1351 -3 2467 -6 2480 -7
25 -24 30 -24 6 0 -14 -2 -14 -16 -3 -15 12 -14 15 5 30 20 17 20 17 1 22 -11
3 -23 1 -26 -4 -3 -5 -16 -6 -30 -3 -14 4 -24 2 -24 -5 0 -6 -4 -11 -10 -11
-5 0 -10 7 -10 15 0 8 -9 15 -20 15 -11 0 -20 -4 -20 -10 0 -6 -9 -6 -22 -1
-27 9 -1379 15 -1421 5 -19 -4 -27 -11 -23 -20 3 -9 -1 -14 -14 -14 -12 0 -17
5 -14 14 3 7 -2 16 -10 19 -17 7 -30 -8 -21 -23 3 -5 1 -10 -4 -10 -6 0 -11 4
-11 8 0 4 -16 6 -35 4 -19 -2 -53 3 -76 12 -36 15 -178 16 -1562 14 -837 -1
-1538 -4 -1558 -6z m199 -29 c-10 -2 -26 -2 -35 0 -10 3 -2 5 17 5 19 0 27 -2
18 -5z m4697 -53 c6 -9 10 -9 16 1 6 9 8 -2 8 -31 -1 -40 -2 -42 -9 -15 -6 25
-8 27 -14 13 -10 -23 -30 -24 -22 -2 4 9 2 22 -4 29 -6 8 -8 25 -4 42 l7 28 8
-27 c4 -14 10 -32 14 -38z m-4788 14 c-3 -3 -12 -4 -19 -1 -8 3 -5 6 6 6 11 1
17 -2 13 -5z m453 -514 c0 -5 -4 -10 -10 -10 -5 0 -10 5 -10 10 0 6 5 10 10
10 6 0 10 -4 10 -10z m1655 -25 c25 -9 50 -13 56 -10 5 4 16 2 23 -4 10 -8 18
-6 31 9 23 25 60 26 78 0 23 -33 90 -48 123 -28 15 10 104 -14 104 -27 0 -6
11 -22 24 -34 14 -13 26 -33 28 -45 2 -13 9 -20 19 -18 9 1 19 -4 23 -13 3 -8
15 -15 26 -15 15 0 20 -7 20 -25 0 -14 7 -28 15 -31 8 -4 15 -17 15 -30 0 -15
-6 -24 -15 -24 -9 0 -15 -9 -15 -25 0 -14 -4 -25 -10 -25 -5 0 -10 5 -10 10 0
6 -11 10 -25 10 -20 0 -27 -6 -31 -30 -5 -20 -12 -30 -25 -30 -10 0 -21 -5
-25 -11 -3 -6 -17 -9 -30 -6 -25 4 -33 -8 -11 -16 6 -3 3 -6 -8 -6 -11 -1 -30
-16 -42 -35 -16 -25 -31 -35 -61 -40 -22 -3 -42 -12 -45 -20 -3 -8 -26 -18
-51 -21 -25 -4 -46 -11 -46 -16 0 -5 -7 -9 -15 -9 -8 0 -15 -4 -15 -10 0 -5
-4 -10 -10 -10 -5 0 -10 7 -10 15 0 29 -32 80 -58 93 -35 16 -67 15 -102 -3
-17 -9 -33 -16 -37 -18 -5 -1 -8 -10 -7 -19 0 -10 -8 -20 -18 -23 -15 -5 -18
-17 -17 -83 1 -95 -4 -135 -19 -140 -7 -2 -12 -11 -12 -21 0 -10 -17 -26 -41
-39 -27 -15 -39 -18 -36 -9 4 10 -2 13 -20 9 -14 -3 -28 0 -32 7 -4 6 -16 13
-27 16 -10 2 -32 8 -49 13 -16 5 -36 7 -42 5 -7 -3 -13 -1 -13 5 0 8 -42 32
-57 32 -3 0 -3 -7 1 -15 8 -21 -3 -45 -20 -45 -17 0 -18 -17 -1 -23 8 -4 7 -6
-3 -6 -19 0 -60 33 -60 49 0 10 3 10 15 0 16 -13 45 -7 45 9 0 5 -15 15 -34
22 -19 7 -32 17 -30 24 3 6 -12 19 -31 28 -20 9 -33 22 -30 27 3 6 -1 10 -9
10 -9 0 -16 8 -16 18 0 10 -7 28 -16 40 -14 21 -14 22 8 22 30 0 48 17 48 46
0 13 5 26 10 29 6 3 10 15 10 26 0 11 7 22 15 25 8 4 15 12 15 19 0 8 7 20 14
28 15 14 16 53 3 74 -4 6 0 24 8 39 8 16 15 35 15 42 0 19 42 104 61 123 9 9
21 23 25 31 5 7 31 19 59 26 27 7 52 18 56 24 4 5 16 7 28 3 14 -4 23 -1 27 9
5 12 20 16 58 16 33 0 61 7 81 19 37 24 90 26 150 6z m55 -515 c0 -5 -2 -10
-4 -10 -3 0 -8 5 -11 10 -3 6 -1 10 4 10 6 0 11 -4 11 -10z m916 -257 c-6 -6
-36 9 -36 18 0 5 9 4 20 -3 10 -7 18 -14 16 -15z m44 17 c0 -5 -8 -10 -17 -10
-15 0 -16 2 -3 10 19 12 20 12 20 0z m-1160 -25 c-7 -8 -17 -15 -22 -15 -6 0
-5 7 2 15 7 8 17 15 22 15 6 0 5 -7 -2 -15z m973 -2 c23 2 50 8 60 12 12 5 17
2 17 -8 0 -12 12 -14 67 -10 66 4 97 -4 135 -35 17 -14 43 -8 33 8 -3 5 0 12
6 16 8 5 10 -1 7 -20 -4 -20 -2 -26 8 -22 8 3 14 1 14 -4 0 -5 7 -7 15 -4 9 4
18 -1 21 -11 4 -9 13 -14 20 -11 10 4 14 -3 14 -20 0 -20 4 -24 19 -19 12 3
23 0 28 -8 4 -8 26 -24 48 -35 24 -13 33 -21 22 -22 -23 0 -12 -20 12 -20 64
0 84 -126 29 -185 -11 -11 -26 -32 -34 -47 -8 -16 -19 -28 -24 -28 -6 0 -10
-7 -10 -15 0 -8 -7 -15 -15 -15 -8 0 -15 -4 -15 -9 0 -5 -11 -12 -25 -15 -15
-4 -22 -11 -19 -20 4 -10 -2 -12 -20 -9 -15 3 -26 1 -26 -5 0 -6 -9 -14 -20
-17 -12 -4 -17 -11 -14 -18 4 -7 4 -9 -1 -5 -9 9 -119 -49 -153 -79 -7 -7 -20
-13 -28 -13 -9 0 -14 -7 -12 -17 2 -13 -9 -22 -44 -35 -63 -22 -165 -85 -178
-109 -6 -10 -16 -19 -22 -19 -5 0 -43 -25 -83 -55 -41 -30 -76 -55 -80 -55 -3
0 -17 -11 -31 -25 -14 -14 -32 -25 -40 -25 -8 0 -17 -7 -20 -15 -5 -12 -10
-13 -20 -4 -11 9 -14 8 -14 -6 0 -15 -7 -16 -49 -10 -28 4 -51 3 -55 -3 -3 -5
-18 -7 -33 -5 -18 3 -24 1 -15 -4 9 -7 6 -13 -14 -23 -24 -13 -74 -94 -74
-120 0 -6 -9 -21 -21 -33 -30 -32 -45 -64 -63 -137 -9 -36 -24 -70 -32 -77
-30 -22 -19 -215 14 -240 22 -18 30 -16 37 7 12 38 25 20 25 -35 0 -30 4 -55
9 -55 5 0 7 -35 5 -80 -3 -60 -9 -85 -23 -102 -11 -13 -29 -34 -40 -46 -11
-13 -22 -29 -24 -35 -3 -8 -11 -5 -26 7 -20 19 -21 19 -21 0 0 -10 -12 -28
-27 -40 -15 -12 -28 -30 -29 -40 0 -11 -1 -34 -2 -51 -2 -36 -22 -46 -22 -12
0 18 -2 18 -25 -8 -19 -21 -24 -24 -25 -11 0 23 -18 32 -35 18 -11 -9 -18 -9
-29 2 -9 7 -28 22 -42 33 -15 11 -43 37 -62 58 -19 20 -41 37 -48 37 -7 0 -19
6 -26 13 -18 17 -65 37 -87 37 -10 0 -47 23 -82 51 -48 38 -68 49 -86 44 -15
-3 -25 -1 -29 9 -3 8 -17 17 -30 20 -22 6 -24 11 -19 39 4 20 0 47 -10 70 -9
21 -13 48 -10 60 5 17 4 19 -4 7 -6 -8 -11 -32 -11 -52 0 -27 -4 -38 -15 -38
-20 0 -20 65 0 104 8 15 15 35 15 42 0 22 -18 16 -26 -8 l-7 -23 -8 23 c-10
25 -35 29 -59 7 -9 -8 -42 -20 -74 -26 -51 -9 -60 -8 -91 11 -20 12 -33 26
-29 31 3 5 -14 9 -38 9 -25 0 -51 6 -60 13 -43 33 -110 173 -100 210 3 12 -37
8 -45 -5 -12 -19 -51 -39 -57 -29 -3 5 0 14 8 20 8 7 17 27 20 46 4 21 13 35
21 35 8 0 12 6 9 13 -8 21 51 77 91 88 20 6 39 18 42 27 12 32 75 117 113 152
21 19 42 43 47 53 5 10 32 43 59 73 27 31 64 72 82 92 17 20 32 41 32 47 0 5
5 3 10 -5 7 -12 10 -12 10 -1 0 8 6 11 16 7 11 -4 29 6 54 31 60 61 90 84 100
78 6 -4 10 0 10 8 0 7 10 19 23 26 12 7 28 24 34 39 19 49 26 67 27 77 6 50
32 69 56 40 7 -9 21 -13 31 -10 9 3 20 2 23 -3 3 -5 18 -8 33 -6 21 3 23 2 10
-4 -20 -8 -21 -16 -5 -45 6 -13 17 -17 30 -14 20 6 40 -8 96 -67 51 -53 132
-78 132 -40 0 8 4 14 10 14 5 0 18 7 29 16 39 34 165 73 279 88 79 11 124 22
148 37 28 17 46 20 86 17 54 -6 79 3 118 40 14 13 36 28 48 33 13 5 26 18 29
29 3 11 10 17 16 13 6 -4 7 -1 2 6 -4 8 3 24 20 41 24 25 25 30 13 49 -7 11
-20 21 -28 21 -12 0 -12 2 -2 9 11 7 9 13 -10 30 -19 19 -23 32 -23 86 0 52 6
74 29 118 29 53 31 54 59 45 15 -6 47 -8 70 -5z m-1993 -1577 c0 -6 11 -21 24
-35 14 -15 27 -38 31 -52 5 -20 2 -27 -18 -36 -41 -19 -53 3 -72 129 -4 25 -2
26 16 15 10 -6 19 -16 19 -21z m497 -242 c-3 -3 -12 -4 -19 -1 -8 3 -5 6 6 6
11 1 17 -2 13 -5z m643 -424 c0 -5 -4 -10 -10 -10 -5 0 -10 5 -10 10 0 6 5 10
10 10 6 0 10 -4 10 -10z m2140 -460 c-14 -11 -31 -20 -39 -20 -18 0 -13 5 24
24 40 21 45 20 15 -4z m-240 -10 c0 -5 -4 -10 -10 -10 -5 0 -10 5 -10 10 0 6
5 10 10 10 6 0 10 -4 10 -10z m-60 -65 c-11 -13 -8 -15 13 -15 14 0 29 5 32
10 9 15 25 12 25 -5 0 -8 6 -15 13 -15 7 0 5 -5 -5 -10 -11 -7 -32 -7 -59 -1
-28 6 -49 6 -62 0 -35 -20 -29 -1 10 25 43 30 51 32 33 11z m-70 -75 c-6 -11
-8 -25 -5 -30 3 -5 -10 -8 -29 -7 -22 1 -32 6 -29 15 3 6 -1 12 -8 13 -8 0 -4
4 9 9 12 5 28 7 36 4 8 -3 17 -1 21 5 11 20 16 11 5 -9z m-145 -42 c-27 -16
-54 -49 -61 -75 -6 -24 -24 -32 -24 -12 0 6 -10 9 -22 6 -13 -3 -32 -1 -43 3
-15 7 -11 9 21 9 37 1 64 14 64 33 0 4 -11 8 -25 8 -18 0 -23 4 -18 16 5 12 7
13 14 2 7 -10 16 -10 51 3 52 20 70 23 43 7z m-181 -93 c-4 -8 -10 -12 -15 -9
-11 6 -2 24 11 24 5 0 7 -7 4 -15z m-106 -114 c-15 -5 -21 7 -13 26 7 17 8 17
15 -2 4 -11 3 -22 -2 -24z m-2901 -403 c-3 -8 -6 -5 -6 6 -1 11 2 17 5 13 3
-3 4 -12 1 -19z"/>
<path d="M2795 2619 c-4 -6 -5 -12 -2 -15 2 -3 7 2 10 11 7 17 1 20 -8 4z"/>
<path d="M1520 1979 c0 -5 5 -7 10 -4 6 3 10 8 10 11 0 2 -4 4 -10 4 -5 0 -10
-5 -10 -11z"/>
</g>
</svg>
